# xmcd
#
# Track frame offsets:
#	150
#	12478
#	23488
#	34117
#	44824
#	55748
#	65356
#	76206
#	87214
#	97237
#	109729
#	122701
#	134111
#	144353
#	154193
#	165644
#	176355
#
# Disc length: 2510 seconds
#
# Revision: 0
# Processed by: cddbd v1.5.2PL0 Copyright (c) Steve Scherf et al.
# Submitted via: EZCDAudioConverter 7.1.5.1
#
DISCID=e309cc11
DTITLE=Various Artist - '60s Country
DYEAR=2018
DGENRE=Country
TTITLE0=Glen Campbell - By the Time I Get to Phoenix
TTITLE1=Roger Miller - King Of The Road
TTITLE2=Leroy Van Dyke - Walk On By
TTITLE3=Buck Owens - Act Naturally
TTITLE4=Del Reeves - Looking At The World Through A Windshield
TTITLE5=Hank Thompson and His Brazos Valley Boys - A Six Pack to Go
TTITLE6=The Everly Brothers - Cathy’s Clown
TTITLE7=Jerry Lee Lewis - Another Place Another Time
TTITLE8=Sonny James - You’re the Only World I Know
TTITLE9=Bill Anderson and Jan Howard - For Loving You
TTITLE10=Jack Greene - Statue of a Fool
TTITLE11=Wynn Stewart - It’s Such a Pretty World Today
TTITLE12=Loretta Lynn - I’m A Honky Tonk Girl
TTITLE13=Buck Owens - I’ve Got a Tiger by the Tail
TTITLE14=Charlie Ryan and the Timberline Riders - Hot Rod Lincoln
TTITLE15=Dave Dudley - Six Days on the Road
TTITLE16=Flatt and Scruggs  - Foggy Mountain Breakdown
EXTD=
EXTT0=
EXTT1=
EXTT2=
EXTT3=
EXTT4=
EXTT5=
EXTT6=
EXTT7=
EXTT8=
EXTT9=
EXTT10=
EXTT11=
EXTT12=
EXTT13=
EXTT14=
EXTT15=
EXTT16=
PLAYORDER=
